<svg xmlns="http://www.w3.org/2000/svg" xmlns:xlink="http://www.w3.org/1999/xlink" width="213.24589999999998" height="37.1524"><path fill="#000" d="M1.58 7.39L1.58 29.42L13.12 29.42L13.12 26.44L5.42 26.44L5.42 7.39ZM27.07 28.34L27.07 25.26C25.90 26.06 23.93 26.75 22.09 26.75C19.34 26.75 18.29 25.46 18.13 22.79L27.23 22.79L27.23 20.80C27.23 15.25 24.79 13.16 21.02 13.16C16.42 13.16 14.23 16.67 14.23 21.49C14.23 27.04 16.96 29.73 21.78 29.73C24.19 29.73 25.96 29.10 27.07 28.34ZM20.95 16.14C22.82 16.14 23.39 17.69 23.39 19.69L23.39 20.00L18.13 20.00C18.23 17.47 19.15 16.14 20.95 16.14ZM35.25 13.16C31.64 13.16 29.13 15.98 29.13 21.11C29.13 26.28 31.64 29.10 35.25 29.10C36.93 29.10 38.33 28.37 39.31 27.01C39.21 30.02 38.36 31.35 35.09 31.35C32.97 31.35 31.35 30.43 30.37 29.83L30.37 32.90C30.37 32.90 32.05 34.33 35.66 34.33C41.27 34.33 43.08 31.64 43.08 26.31L43.08 13.47L39.59 13.47L39.40 15.44C38.42 13.95 36.99 13.16 35.25 13.16ZM36.20 26.12C34.08 26.12 33.03 24.60 33.03 21.11C33.03 17.66 34.08 16.14 36.20 16.14C38.26 16.14 39.31 17.66 39.31 21.14C39.31 24.60 38.26 26.12 36.20 26.12ZM58.17 18.54C58.17 14.68 56.20 13.22 52.21 13.22C49.71 13.22 47.74 14.01 46.60 14.68L46.60 17.82C47.61 17.05 49.83 16.23 51.77 16.23C53.57 16.23 54.40 16.86 54.40 18.58L54.40 19.46L53.79 19.46C48.03 19.46 45.46 21.37 45.46 24.60C45.46 27.83 47.42 29.64 50.34 29.64C52.56 29.64 53.51 28.91 54.24 28.15L54.40 28.15C54.43 28.56 54.56 29.10 54.68 29.42L58.36 29.42C58.23 28.12 58.17 26.82 58.17 25.52ZM54.40 25.61C53.92 26.31 53.03 26.88 51.70 26.88C50.12 26.88 49.33 25.99 49.33 24.63C49.33 22.82 50.62 22.16 53.86 22.16L54.40 22.16ZM64.98 7.39L61.21 7.39L61.21 29.42L64.98 29.42ZM79.88 29.73C81.66 29.73 83.12 28.91 84.13 27.36L84.32 29.42L87.81 29.42L87.81 7.39L84.04 7.39L84.04 15.34C83.09 13.92 81.69 13.16 80.04 13.16C76.40 13.16 73.86 16.23 73.86 21.56C73.86 26.82 76.33 29.73 79.88 29.73ZM80.99 16.14C83.02 16.14 84.04 17.75 84.04 21.43C84.04 25.14 82.96 26.75 80.84 26.75C78.77 26.75 77.76 25.17 77.76 21.56C77.76 17.78 78.84 16.14 80.99 16.14ZM97.38 13.16C93.23 13.16 90.34 16.10 90.34 21.46C90.34 26.79 93.23 29.73 97.38 29.73C101.54 29.73 104.42 26.79 104.42 21.43C104.42 16.10 101.54 13.16 97.38 13.16ZM97.38 26.75C95.29 26.75 94.24 25.14 94.24 21.46C94.24 17.75 95.29 16.14 97.38 16.14C99.47 16.14 100.52 17.75 100.52 21.43C100.52 25.14 99.47 26.75 97.38 26.75ZM113.80 29.73C115.55 29.73 116.78 29.42 117.70 28.75L117.70 25.68C116.75 26.34 115.61 26.75 114.02 26.75C111.33 26.75 110.22 24.66 110.22 21.37C110.22 17.91 111.58 16.14 114.06 16.14C115.51 16.14 116.94 16.64 117.70 17.12L117.70 13.92C116.91 13.47 115.51 13.16 113.64 13.16C108.83 13.16 106.32 16.61 106.32 21.46C106.32 26.79 108.76 29.73 113.80 29.73ZM128.96 24.92C128.26 25.77 127.15 26.50 125.79 26.50C124.45 26.50 123.85 25.93 123.85 24.73L123.85 13.47L120.08 13.47L120.08 25.11C120.08 28.28 121.35 29.67 124.42 29.67C126.67 29.67 128.00 28.85 128.77 28.09L128.96 28.09L129.05 29.42L132.73 29.42L132.73 13.47L128.96 13.47ZM139.67 17.97C140.37 17.12 141.32 16.39 142.68 16.39C144.01 16.39 144.46 16.96 144.46 18.16L144.46 29.42L148.23 29.42L148.23 17.97C148.93 17.12 149.88 16.39 151.24 16.39C152.57 16.39 153.02 16.96 153.02 18.16L153.02 29.42L156.79 29.42L156.79 17.78C156.79 14.61 155.68 13.22 152.60 13.22C150.16 13.22 148.70 14.17 147.82 15.25C147.21 13.85 145.95 13.22 143.89 13.22C141.64 13.22 140.62 14.04 139.86 14.80L139.67 14.80L139.58 13.47L135.90 13.47L135.90 29.42L139.67 29.42ZM172.00 28.34L172.00 25.26C170.83 26.06 168.87 26.75 167.03 26.75C164.27 26.75 163.22 25.46 163.06 22.79L172.16 22.79L172.16 20.80C172.16 15.25 169.72 13.16 165.95 13.16C161.35 13.16 159.17 16.67 159.17 21.49C159.17 27.04 161.89 29.73 166.71 29.73C169.12 29.73 170.89 29.10 172.00 28.34ZM165.89 16.14C167.76 16.14 168.33 17.69 168.33 19.69L168.33 20.00L163.06 20.00C163.16 17.47 164.08 16.14 165.89 16.14ZM178.47 17.97C179.17 17.12 180.28 16.39 181.64 16.39C182.97 16.39 183.57 16.96 183.57 18.16L183.57 29.42L187.35 29.42L187.35 17.78C187.35 14.61 186.08 13.22 183.00 13.22C180.75 13.22 179.42 14.04 178.66 14.80L178.47 14.80L178.38 13.47L174.70 13.47L174.70 29.42L178.47 29.42ZM189.09 13.47L189.09 16.45L191.09 16.45L191.09 24.63C191.09 27.61 192.77 29.73 196.25 29.73C198.09 29.73 199.14 29.32 199.14 29.32L199.14 26.25C199.14 26.25 198.44 26.75 197.17 26.75C195.59 26.75 194.86 25.84 194.86 24.66L194.86 16.45L198.82 16.45L198.82 13.47L194.86 13.47L194.86 9.99L191.09 9.99L191.09 13.47ZM206.27 29.73C210.01 29.73 212.45 28.18 212.45 24.41C212.45 21.62 210.52 20.16 207.32 19.72C205.73 19.50 204.40 19.31 204.40 17.78C204.40 16.58 205.35 16.04 207.13 16.04C209.57 16.04 211.12 16.93 211.38 17.12L211.38 14.04C211.38 14.04 209.89 13.16 206.75 13.16C202.88 13.16 200.72 15.18 200.72 17.94C200.72 20.76 202.34 22.22 205.45 22.63C207.63 22.92 208.81 23.52 208.81 24.92C208.81 26.15 207.83 26.75 205.67 26.75C202.91 26.75 201.14 25.33 200.82 25.17L200.82 28.24C200.82 28.24 202.59 29.73 206.27 29.73Z"/></svg>