<svg xmlns="http://www.w3.org/2000/svg" xmlns:xlink="http://www.w3.org/1999/xlink" width="95.1951" height="37.1524"><path fill="#000" d="M15.15 18.04L19.84 7.39L15.95 7.39L11.25 18.04ZM12.65 29.42L12.65 25.68C12.65 22.86 12.30 22.03 11.22 19.69L5.58 7.39L1.58 7.39L8.81 23.11L8.81 29.42ZM55.22 29.73C57.00 29.73 58.45 28.91 59.47 27.36L59.66 29.42L63.15 29.42L63.15 7.39L59.37 7.39L59.37 15.34C58.42 13.92 57.03 13.16 55.38 13.16C51.73 13.16 49.20 16.23 49.20 21.56C49.20 26.82 51.67 29.73 55.22 29.73ZM78.39 28.34L78.39 25.26C77.22 26.06 75.26 26.75 73.42 26.75C70.66 26.75 69.61 25.46 69.45 22.79L78.55 22.79L78.55 20.80C78.55 15.25 76.11 13.16 72.34 13.16C67.74 13.16 65.56 16.67 65.56 21.49C65.56 27.04 68.28 29.73 73.10 29.73C75.51 29.73 77.28 29.10 78.39 28.34ZM37.79 17.97C38.48 17.12 39.59 16.39 40.96 16.39C42.29 16.39 42.89 16.96 42.89 18.16L42.89 29.42L46.66 29.42L46.66 17.78C46.66 14.61 45.39 13.22 42.32 13.22C40.07 13.22 38.74 14.04 37.98 14.80L37.79 14.80L37.69 13.47L34.01 13.47L34.01 29.42L37.79 29.42ZM30.94 18.54C30.94 14.68 28.97 13.22 24.98 13.22C22.48 13.22 20.51 14.01 19.37 14.68L19.37 17.82C20.38 17.05 22.60 16.23 24.54 16.23C26.34 16.23 27.17 16.86 27.17 18.58L27.17 19.46L26.56 19.46C20.80 19.46 18.23 21.37 18.23 24.60C18.23 27.83 20.19 29.64 23.11 29.64C25.33 29.64 26.28 28.91 27.01 28.15L27.17 28.15C27.20 28.56 27.33 29.10 27.45 29.42L31.13 29.42C31.00 28.12 30.94 26.82 30.94 25.52ZM90.00 29.42L94.24 29.42L89.05 21.21L93.55 13.47L89.77 13.47L87.05 18.29L84.00 13.47L79.76 13.47L84.58 21.11L79.57 29.42L83.40 29.42L86.60 24.03ZM56.33 16.14C58.36 16.14 59.37 17.75 59.37 21.43C59.37 25.14 58.30 26.75 56.17 26.75C54.11 26.75 53.10 25.17 53.10 21.56C53.10 17.78 54.18 16.14 56.33 16.14ZM72.28 16.14C74.15 16.14 74.72 17.69 74.72 19.69L74.72 20.00L69.45 20.00C69.55 17.47 70.47 16.14 72.28 16.14ZM27.17 25.61C26.69 26.31 25.80 26.88 24.47 26.88C22.89 26.88 22.09 25.99 22.09 24.63C22.09 22.82 23.39 22.16 26.63 22.16L27.17 22.16Z"/></svg>